#!OML:ASF F:\VICON\USERDATA\INSTALL\rory3\rory3.ASF
:FULLY-SPECIFIED
:DEGREES
217
root 3.02939 18.364 6.48026 -176.425 -15.1081 -181.014
lowerback 8.82132 5.09593 3.91248
upperback 1.85373 7.03797 1.43059
thorax -2.69973 3.41383 -1.44783
lowerneck -19.716 -6.46807 -10.4374
upperneck 32.3225 -9.40925 5.20583
head 15.4221 -5.05899 2.02099
rclavicle 9.93923e-015 -3.33958e-014
rhumerus 36.5022 -17.0161 -66.1558
rradius 32.6175
rwrist 1.2493
rhand -28.1329 -6.5942
rfingers 7.12502
rthumb -1.51427 -36.5686
lclavicle 9.93923e-015 -3.33958e-014
lhumerus -29.4429 1.7744 84.7874
lradius 43.2579
lwrist -3.95341
lhand -11.7445 25.0704
lfingers 7.12502
lthumb 14.3032 54.5577
rfemur -1.84352 -6.29959 26.7859
rtibia 4.92747
rfoot -9.49797 -14.1347
rtoes 18.7544
lfemur -72.1623 2.44898 -26.1728
ltibia 91.0933
lfoot -19.5284 -11.1779
ltoes -26.9297
218
root 3.0347 18.3659 6.46087 -176.335 -15.2267 -181.026
lowerback 8.74107 5.15089 4.02295
upperback 1.91358 7.11137 1.37298
thorax -2.56859 3.45319 -1.56136
lowerneck -19.6354 -6.4159 -10.3639
upperneck 32.3797 -9.37356 5.18314
head 15.4203 -5.04337 2.00886
rclavicle -8.15017e-015 -2.54444e-014
rhumerus 37.1939 -17.9972 -66.7821
rradius 31.8896
rwrist 0.864852
rhand -27.3566 -5.93606
rfingers 7.12502
rthumb -0.764513 -35.9144
lclavicle -8.15017e-015 -2.54444e-014
lhumerus -29.6491 1.66373 84.6782
lradius 44.003
lwrist -4.28095
lhand -11.725 25.2873
lfingers 7.12502
lthumb 14.322 54.7734
rfemur -1.2296 -6.43951 26.8148
rtibia 3.61175
rfoot -8.90375 -14.3904
rtoes 18.2046
lfemur -72.8987 2.11901 -26.3136
ltibia 90.7957
lfoot -19.5085 -12.1209
ltoes -26.1161
219
root 3.03572 18.3813 6.44262 -176.088 -15.2815 -181.285
lowerback 8.42794 5.23875 3.92239
upperback 2.0722 7.19378 1.25513
thorax -2.22397 3.50567 -1.59258
lowerneck -19.7874 -6.39592 -10.3111
upperneck 32.4873 -9.33244 5.13436
head 15.495 -5.02138 1.98411
rclavicle -1.98785e-016 -2.46493e-014
rhumerus 37.8693 -19.3332 -68.0149
rradius 31.9418
rwrist 0.610647
rhand -26.7712 -5.93784
rfingers 7.12502
rthumb -0.199066 -35.9175
lclavicle -1.98785e-016 -2.46493e-014
lhumerus -29.4333 1.63433 84.6361
lradius 44.3005
lwrist -4.77689
lhand -11.8811 25.2652
lfingers 7.12502
lthumb 14.1716 54.7618
rfemur -0.588422 -6.52507 26.5444
rtibia 2.05107
rfoot -8.24913 -14.6823
rtoes 18.2635
lfemur -73.6399 1.77557 -26.7359
ltibia 90.4363
lfoot -19.6218 -12.6795
ltoes -26.0536
220
root 3.04018 18.3861 6.41257 -176.099 -15.2581 -181.211
lowerback 8.38215 5.33587 4.04763
upperback 2.16855 7.32183 1.26071
thorax -2.07677 3.5713 -1.65431
lowerneck -19.8859 -6.37004 -10.3338
upperneck 32.7097 -9.29777 5.0913
head 15.6185 -5.02024 1.97308
rclavicle -6.48038e-014 4.21423e-014
rhumerus 38.0142 -20.2098 -68.7703
rradius 32.4113
rwrist -0.217392
rhand -26.2302 -6.3173
rfingers 7.12502
rthumb 0.323428 -36.2968
lclavicle -6.48038e-014 4.21423e-014
lhumerus -29.2714 1.82073 84.5744
lradius 44.295
lwrist -5.51122
lhand -12.1108 24.6472
lfingers 7.12502
lthumb 13.9502 54.1592
rfemur -0.522812 -6.52664 26.634
rtibia 2.14213
rfoot -8.4867 -14.5373
rtoes 18.7303
lfemur -74.2664 1.66923 -26.9778
ltibia 89.8779
lfoot -19.7239 -12.49
ltoes -27.8548
221
root 3.04827 18.3751 6.37977 -176.389 -15.2343 -180.909
lowerback 8.69292 5.37828 4.30288
upperback 2.20209 7.40659 1.34446
thorax -2.18678 3.60507 -1.74411
lowerneck -19.8102 -6.27675 -10.2395
upperneck 32.8772 -9.20397 4.98481
head 15.6577 -4.99632 1.93242
rclavicle -2.42517e-014 4.53229e-014
rhumerus 38.302 -20.0351 -68.2632
rradius 31.5459
rwrist -2.19954
rhand -26.2859 -6.17489
rfingers 7.12502
rthumb 0.269641 -36.1545
lclavicle -2.42517e-014 4.53229e-014
lhumerus -29.4083 2.02903 84.4002
lradius 44.4752
lwrist -6.113
lhand -12.3062 24.1025
lfingers 7.12502
lthumb 13.7619 53.6273
rfemur -0.249863 -6.53706 26.9758
rtibia 2.30844
rfoot -8.77691 -14.3652
rtoes 19.124
lfemur -74.5963 1.67598 -26.8598
ltibia 89.4926
lfoot -19.8479 -12.362
ltoes -29.0829
222
root 3.05487 18.3459 6.34742 -176.628 -15.1887 -180.737
lowerback 8.89903 5.43845 4.41468
upperback 2.31258 7.49271 1.4
thorax -2.17321 3.64378 -1.76968
lowerneck -19.7025 -6.20498 -10.0573
upperneck 32.8937 -9.10299 4.77512
head 15.6045 -4.96507 1.83707
rclavicle -4.47266e-014 -2.3059e-014
rhumerus 37.8375 -20.4888 -68.5309
rradius 32.6241
rwrist -2.3541
rhand -25.6787 -6.4633
rfingers 7.12502
rthumb 0.856036 -36.4413
lclavicle -4.47266e-014 -2.3059e-014
lhumerus -29.442 2.1762 84.2639
lradius 44.8051
lwrist -6.53684
lhand -12.2725 24.1873
lfingers 7.12502
lthumb 13.7944 53.7099
rfemur 0.26689 -6.53429 27.2122
rtibia 1.83612
rfoot -8.52456 -14.5048
rtoes 18.1058
lfemur -74.6805 1.58556 -26.6749
ltibia 88.9616
lfoot -19.56 -12.7493
ltoes -28.0095
223
root 3.06241 18.3375 6.31843 -176.781 -15.1212 -180.633
lowerback 8.94447 5.48884 4.45986
upperback 2.52475 7.54289 1.45186
thorax -1.97547 3.66967 -1.73615
lowerneck -19.8403 -6.16769 -9.99564
upperneck 32.9221 -8.9968 4.65478
head 15.6276 -4.9224 1.79457
rclavicle -2.92213e-014 3.73715e-014
rhumerus 37.4494 -19.5581 -66.9283
rradius 32.7779
rwrist -4.42071
rhand -25.7002 -6.72256
rfingers 7.12502
rthumb 0.835278 -36.7007
lclavicle -2.92213e-014 3.73715e-014
lhumerus -29.2677 2.44326 84.1754
lradius 45.1293
lwrist -6.83053
lhand -12.3019 24.6542
lfingers 7.12502
lthumb 13.7661 54.1788
rfemur 0.697127 -6.50706 27.3816
rtibia 1.32502
rfoot -8.16381 -14.7159
rtoes 16.9758
lfemur -74.9356 1.54806 -26.614
ltibia 88.4522
lfoot -19.298 -12.9524
ltoes -27.4253
224
root 3.07065 18.3419 6.29254 -176.913 -15.087 -180.614
lowerback 9.14572 5.51546 4.39991
upperback 2.61165 7.57227 1.50305
thorax -2.00872 3.68002 -1.67015
lowerneck -19.8137 -6.07958 -9.95354
upperneck 32.9175 -8.81863 4.50319
head 15.5895 -4.86378 1.76123
rclavicle 7.23576e-014 3.18055e-015
rhumerus 37.3755 -19.1997 -66.3932
rradius 32.6021
rwrist -5.1614
rhand -25.8771 -6.94581
rfingers 7.12502
rthumb 0.664416 -36.9245
lclavicle 7.23576e-014 3.18055e-015
lhumerus -29.4429 2.50709 84.1426
lradius 45.6571
lwrist -7.01792
lhand -12.2476 25.0917
lfingers 7.12502
lthumb 13.8184 54.6128
rfemur 1.55225 -6.52172 27.4379
rtibia -3.97569e-015
rfoot -7.56454 -14.9845
rtoes 17.0051
lfemur -75.1986 1.47029 -26.6757
ltibia 87.9118
lfoot -19.0767 -12.9874
ltoes -27.1481
225
root 3.07648 18.3455 6.26389 -177.02 -15.0529 -180.497
lowerback 9.36631 5.5367 4.44932
upperback 2.58731 7.61588 1.55316
thorax -2.15298 3.6953 -1.67496
lowerneck -19.6754 -5.96956 -9.85407
upperneck 32.9147 -8.64654 4.33498
head 15.5228 -4.80912 1.71251
rclavicle 8.15017e-015 -2.54444e-014
rhumerus 37.7614 -20.0244 -67.4813
rradius 32.17
rwrist -3.32109
rhand -25.9991 -6.6289
rfingers 7.12502
rthumb 0.546637 -36.6079
lclavicle 8.15017e-015 -2.54444e-014
lhumerus -29.8778 2.44084 84.0581
lradius 46.3559
lwrist -7.09723
lhand -12.0528 25.3651
lfingers 7.12502
lthumb 14.0061 54.8733
rfemur 1.73272 -6.52232 27.605
rtibia 2.38542e-015
rfoot -7.59066 -14.9961
rtoes 16.3508
lfemur -75.4719 1.40391 -26.6809
ltibia 87.3491
lfoot -18.7258 -12.7547
ltoes -26.7804
226
root 3.08082 18.3434 6.23326 -177.115 -15.0079 -180.316
lowerback 9.48928 5.55268 4.52799
upperback 2.60232 7.64663 1.64756
thorax -2.20555 3.70562 -1.63615
lowerneck -19.5619 -5.89103 -9.87138
upperneck 32.8963 -8.50488 4.25328
head 15.4706 -4.76759 1.71296
rclavicle -9.34288e-015 -1.59028e-015
rhumerus 37.9862 -20.4334 -68.0019
rradius 31.8914
rwrist -1.90618
rhand -26.4292 -6.05751
rfingers 7.12502
rthumb 0.131221 -36.0372
lclavicle -9.34288e-015 -1.59028e-015
lhumerus -30.2978 2.53527 83.9759
lradius 47.055
lwrist -7.11551
lhand -11.8923 25.373
lfingers 7.12502
lthumb 14.1608 54.8704
rfemur 1.89519 -6.50631 27.8244
rtibia -5.56597e-015
rfoot -7.72347 -14.9102
rtoes 16.7921
lfemur -75.7315 1.3033 -26.5064
ltibia 86.9031
lfoot -18.1668 -12.6361
ltoes -25.4409
227
root 3.08531 18.345 6.20487 -177.236 -14.9532 -180.225
lowerback 9.60892 5.53716 4.5132
upperback 2.69735 7.61855 1.73433
thorax -2.18756 3.68797 -1.54362
lowerneck -19.5848 -5.77455 -9.86493
upperneck 32.9058 -8.2734 4.11931
head 15.4503 -4.68802 1.70194
rclavicle 1.09928e-013 -3.97569e-014
rhumerus 37.4391 -19.4403 -66.7489
rradius 32.223
rwrist -2.80643
rhand -26.916 -5.85349
rfingers 7.12502
rthumb -0.338916 -35.833
lclavicle 1.09928e-013 -3.97569e-014
lhumerus -30.8955 2.43803 83.9157
lradius 48.1388
lwrist -6.82964
lhand -11.7172 25.4442
lfingers 7.12502
lthumb 14.3295 54.9297
rfemur 2.09164 -6.49214 27.9436
rtibia 2.38542e-015
rfoot -7.81325 -14.8901
rtoes 16.908
lfemur -75.8457 1.1802 -26.3362
ltibia 86.4904
lfoot -17.6511 -12.7104
ltoes -22.878
228
root 3.08346 18.3496 6.17802 -177.099 -14.8356 -180.427
lowerback 9.61588 5.53445 4.31622
upperback 2.67499 7.60114 1.66284
thorax -2.23204 3.68095 -1.51129
lowerneck -19.5403 -5.63469 -9.78663
upperneck 32.9228 -8.06504 4.02547
head 15.4184 -4.60804 1.69237
rclavicle -5.76476e-014 4.6118e-014
rhumerus 36.625 -18.3324 -65.426
rradius 32.7001
rwrist -3.8067
rhand -27.638 -5.88372
rfingers 7.12502
rthumb -1.03624 -35.8609
lclavicle -5.76476e-014 4.6118e-014
lhumerus -31.4707 2.19726 83.8177
lradius 49.004
lwrist -6.56765
lhand -11.8609 25.1938
lfingers 7.12502
lthumb 14.191 54.6891
rfemur 2.09256 -6.40575 27.7443
rtibia 6.36111e-015
rfoot -7.8601 -14.9037
rtoes 16.7103
lfemur -75.9971 1.04 -26.5264
ltibia 85.9275
lfoot -17.3812 -12.4442
ltoes -24.1274
229
root 3.07625 18.3516 6.15453 -176.754 -14.7535 -180.805
lowerback 9.5576 5.53751 4.07802
upperback 2.54519 7.59688 1.46151
thorax -2.33961 3.68377 -1.59048
lowerneck -19.5246 -5.51701 -9.67438
upperneck 33.0898 -7.96669 4.01715
head 15.4771 -4.56545 1.68831
rclavicle 5.54609e-014 -1.74931e-014
rhumerus 36.2339 -18.3644 -65.908
rradius 33.1139
rwrist -3.52742
rhand -29.0172 -5.54834
rfingers 7.12502
rthumb -2.36828 -35.5149
lclavicle 5.54609e-014 -1.74931e-014
lhumerus -31.7602 2.14411 83.647
lradius 49.351
lwrist -6.5785
lhand -11.9264 24.9696
lfingers 7.12502
lthumb 14.1279 54.4693
rfemur 1.91703 -6.34393 27.3522
rtibia -1.66979e-014
rfoot -7.98567 -14.8693
rtoes 17.1509
lfemur -76.2469 0.813534 -26.9373
ltibia 85.3203
lfoot -16.8993 -12.4913
ltoes -23.1799
230
root 3.07186 18.348 6.13265 -176.54 -14.696 -181.005
lowerback 9.51818 5.52109 3.94463
upperback 2.53018 7.56345 1.37461
thorax -2.34109 3.66991 -1.60081
lowerneck -19.6181 -5.42135 -9.58271
upperneck 33.1613 -7.81506 3.92092
head 15.5081 -4.50408 1.66004
rclavicle -3.43897e-014 -9.54166e-015
rhumerus 35.7584 -17.944 -65.7351
rradius 33.7779
rwrist -3.61105
rhand -30.0273 -5.40244
rfingers 7.12502
rthumb -3.34385 -35.356
lclavicle -3.43897e-014 -9.54166e-015
lhumerus -31.8605 2.2228 83.5622
lradius 49.6648
lwrist -6.57091
lhand -12.0163 25.2133
lfingers 7.12502
lthumb 14.0413 54.719
rfemur 1.82131 -6.3095 27.1622
rtibia -3.18055e-015
rfoot -8.04383 -14.8572
rtoes 17.2776
lfemur -76.4094 0.598873 -27.0926
ltibia 84.7873
lfoot -16.4738 -12.3973
ltoes -25.1147
